<?xml version="1.0" encoding="UTF-8"?>
<svg id="_Слой_1" data-name="Слой 1" xmlns="http://www.w3.org/2000/svg" viewBox="0 0 408.22 408.22">
  <defs>
    <style>
      .cls-1 {
        fill: none;
        stroke: #000;
        stroke-linecap: round;
        stroke-miterlimit: 10;
        stroke-width: 16px;
      }
    </style>
  </defs>
  <path class="cls-1" d="M200.5296,362.82h.12m-44.6604-10.0275c13.8416,5.4653,30.5404,10.0175,44.5404,10.0275m147.6304-25.56c-1.75,1.89-3.53,3.74-5.35,5.55-35.48,35.48-84.51,57.41-138.7,57.41-35.75,0-69.25-9.54-98.1-26.22C47.4,340.11,8,276.76,8,204.11c0-35.75,9.54-69.25,26.22-98.09C68.1,47.4,131.46,8,204.11,8c35.75,0,69.25,9.54,98.09,26.21,29.78,17.22,54.59,42.03,71.8,71.81,16.68,28.84,26.22,62.34,26.22,98.09M68.3395,125.7258c13.901-24.0344,17.016-25.8839,30.3081-37.572m101.882,274.6661c35.1631-.5535,61.793-10.0275,81.9304-22.79,.03-.02,.06-.03,.09-.06,11.89-6.87,22.75-15.25,32.4-24.9,9.67-9.64,18.08-20.57,24.96-32.49m-139.3804,80.24,3.4604-41.1116l-3.4604,41.1116m155.658-197.1206c-2.9406-13.5446-9.486-28.3236-16.2741-40.0642-6.8837-11.9127-16.4285-24.0244-28.3691-34.5392m8.2765,93.0292c1.4077,7.2345,1.7144,12.332,1.7291,19.9849v.24c0,10.5-1.37,20.66-3.95,30.34-2.67,9.99-6.62,19.46-11.67,28.2-.01,.02-.03,.05-.04,.07-4.7856,8.2703-10.5471,15.9017-17.1318,22.7336m19.0969-135.5248c-6.505-11.6733-13.3868-21.498-20.609-28.7202-7.2222-7.2222-15.3817-13.498-24.2821-18.6401-8.7666-5.0707-18.2473-9.0344-28.2637-11.7126M91.9109,169.2152c1.9604-7.8416,5.8274-14.7268,10.8981-23.4934,5.1421-8.9005,11.418-17.0511,18.6401-24.2732s15.3727-13.498,24.2732-18.6401c8.7755-5.0707,18.2652-9.0344,28.2815-11.7126m29.9861,230.6124c10.4985,0,20.4557-1.727,30.1329-4.3069M92.6328,240.3964c4.5071,12.4033,5.1055,13.8004,10.1762,22.567,5.1421,8.9005,11.4269,17.06,18.649,24.2732,7.2132,7.2222,15.3727,13.498,24.2643,18.6401,8.7755,5.0707,8.2488,6.3562,18.2652,9.0344m-26.3665-72.3818c3.39,5.84,7.5,11.18,12.22,15.9h.01c4.75,4.76,10.08,8.85,15.91,12.23,5.74,3.32,11.97,5.92,18.53,7.66,6.35,1.69,13.01,2.6,19.89,2.6s13.54-.91,19.88-2.6c6.57-1.74,20.27-7.39,25.03-11m-121.74-63.21c0-6.88,.92-13.54,2.61-19.88,1.74-6.57,4.34-12.8,7.66-18.54v-.01c3.38-5.84,7.49-11.17,12.22-15.9,4.74-4.74,10.08-8.85,15.91-12.23,5.74-3.32,11.98-5.91,18.54-7.66,6.35-1.69,13.01-2.6,19.89-2.6s13.54,.91,19.88,2.6h.01c6.57,1.75,12.78,4.34,18.53,7.66,5.83,3.38,11.17,7.49,15.9,12.23,4.73,4.73,11.49,14.46,15.35,22.12m-4.081,70.1207c3.28-5.67,5.84-11.81,7.56-18.29,1.67-6.26,2.57-12.83,2.57-19.62m-75.79,37.48v38.31m77.4144,58.2934l-3.64-6.3-8.1144-14.0534-8.2543-14.3005m8.2543-61.5195l19.64,11.34,16.52,9.53m-64.34-58.78h38.31m-68.1146-36.7047c-2.4748-.5156-5.0444-.7853-7.6754-.7853-3.36,0-6.62,.44-9.71,1.27-3.2,.85-6.24,2.12-9.04,3.74-2.84,1.64-5.45,3.65-7.76,5.96-2.31,2.31-4.32,4.92-5.96,7.77-1.63,2.8-2.9,5.84-3.75,9.04-.83,3.09-1.27,6.35-1.27,9.71s.44,6.62,1.27,9.71c.85,3.2,2.12,6.24,3.74,9.04,1.65,2.85,3.66,5.46,5.97,7.76,2.31,2.31,4.92,4.32,7.76,5.96v.01c2.8,1.61,5.84,2.88,9.04,3.73,3.09,.83,6.35,1.27,9.71,1.27s6.62-.44,9.71-1.27c3.2-.85,6.23-2.12,9.03-3.74,2.85-1.64,5.46-3.65,7.77-5.96,2.31-2.31,4.32-4.92,5.96-7.77,1.62-2.8,2.89-5.83,3.74-9.03,.83-3.09,1.27-6.35,1.27-9.71m133.07,97.86c20.12-34.78,25.56-57.1905,25.56-97.86m-38.6655,0h0c.41,11.93-.0857,15.1763-3.1345,30.61-3.3799,17.1099-9.98,33.12-18.51,47.86l34.75,19.39m-53.11-97.86h40.0045m12.4455-98.09l-27.72,16.01m-83.7979-19.4987l-19.8823,35.0229m36.0481-62.5556l7.5421-13.0586,16.01-27.73m-98.2117,12.9983l-.118,39.9703m-78.3566-18.9941c11.7406-6.7881,24.4373-12.0943,37.851-15.6796,12.9548-3.4514,26.5693-5.2967,40.6236-5.2967s34.4266,2.495,47.5256,8.0198m-105.7916,47.5803l-20.2086-34.6239m-57.1742,57.5412l-33.2607-19.2087m67.5152,39.0806l19.64,11.33,15.3885,8.7609m-10.2667,38.4214h10.1363s10.15,0,10.15,0h18.9778m-71.5219,0H49.1822m88.4403,38.4215l-34.8135,20.432m22.7047,77.062l-19.5037,33.9746M54.3456,156.04c-5.2277,16.5149-7.2588,34.0155-7.2588,48.0698s1.8452,27.6688,5.2967,40.6236c3.5853,13.4137,8.8915,26.1104,15.6796,37.851,6.8837,11.9127,15.2972,22.8406,24.9631,32.4874,9.6659,9.6659,20.5747,18.0698,32.4874,24.9536"/>
</svg>